<?xml version="1.0" encoding="utf-8"?>

<!-- The icon can be used freely in both personal and commercial projects with no attribution required, but always appreciated. 
You may NOT sub-license, resell, rent, redistribute or otherwise transfer the icon without express written permission from iconmonstr.com -->

<!DOCTYPE svg PUBLIC "-//W3C//DTD SVG 1.1//EN" "http://www.w3.org/Graphics/SVG/1.1/DTD/svg11.dtd">
<svg version="1.1" xmlns="http://www.w3.org/2000/svg" xmlns:xlink="http://www.w3.org/1999/xlink" x="0px" y="0px"
	 width="512px" height="512px" viewBox="0 0 512 512" enable-background="new 0 0 512 512" xml:space="preserve">
<path id="time-8-icon" d="M340.377,292.154H227.178v-124.4h36v88.4h77.199V292.154z M389.404,378.858
	c29.393-32.142,47.327-74.937,47.327-121.924c0-99.814-80.915-180.73-180.731-180.73c-99.815,0-180.73,80.916-180.73,180.73
	c0,46.986,17.935,89.781,47.326,121.924c-9.047,22.51-20.913,52.037-28.938,72.002c-1.211,3.014-0.317,6.465,2.204,8.513
	s6.086,2.219,8.786,0.413c18.391-12.305,45.747-30.606,65.463-43.797c25.548,13.824,54.801,21.677,85.889,21.677
	s60.342-7.853,85.89-21.677l65.463,43.797c2.701,1.807,6.264,1.643,8.786-0.404c2.523-2.047,3.418-5.499,2.206-8.515
	L389.404,378.858z M256,392.666c-75.013,0-135.73-60.707-135.73-135.731c0-75.013,60.706-135.73,135.73-135.73
	c75.013,0,135.731,60.704,135.731,135.73C391.731,331.945,331.026,392.666,256,392.666z M174.875,62.454
	c-12.251-7.292-26.556-11.491-41.848-11.491c-45.287,0-82,36.713-82,82c0,15.057,4.068,29.158,11.153,41.284
	C83.734,123.916,124.338,83.614,174.875,62.454z M449.82,174.246c7.085-12.126,11.152-26.227,11.152-41.283
	c0-45.287-36.713-82-82-82c-15.292,0-29.597,4.199-41.847,11.491C387.662,83.613,428.266,123.916,449.82,174.246z"/>
</svg>
