<?xml version="1.0" encoding="iso-8859-1"?>
<!-- Generator: Adobe Illustrator 16.0.0, SVG Export Plug-In . SVG Version: 6.00 Build 0)  -->
<!DOCTYPE svg PUBLIC "-//W3C//DTD SVG 1.1//EN" "http://www.w3.org/Graphics/SVG/1.1/DTD/svg11.dtd">
<svg version="1.1" id="Capa_1" xmlns="http://www.w3.org/2000/svg" xmlns:xlink="http://www.w3.org/1999/xlink" x="0px" y="0px"
	 width="456.721px" height="456.721px" viewBox="0 0 456.721 456.721" style="enable-background:new 0 0 456.721 456.721;"
	 xml:space="preserve">
<g>
	<g id="Layer_8_33_">
		<path d="M165.251,364.831c-2.755-6.055-4.133-11.033-4.133-14.963c0-5.077,1.642-9.182,4.924-12.276
			c3.283-3.11,7.373-4.664,12.276-4.664c2.456,0,4.816,0.723,7.095,2.166c2.283,1.444,3.765,3.175,4.465,5.188
			c4.555,12.172,9.437,21.212,14.643,27.119c5.204,5.921,12.539,8.865,21.998,8.865c5.431,0,10.659-1.324,15.695-4.006
			c5.034-2.67,9.193-6.63,12.489-11.883c3.283-5.248,4.923-11.328,4.923-18.257c0-10.243-2.802-18.275-8.405-24.098
			c-5.603-5.822-13.405-8.734-23.378-8.734c-1.753,0-4.469,0.176-8.143,0.526c-3.677,0.35-6.04,0.524-7.095,0.524
			c-4.812,0-8.533-1.204-11.162-3.611c-2.626-2.408-3.938-5.757-3.938-10.047c0-4.202,1.574-7.596,4.729-10.178
			c3.154-2.583,7.833-3.875,14.054-3.875h5.384c8.059,0,14.994-2.363,20.817-7.091c5.822-4.728,8.731-11.513,8.731-20.355
			c0-6.742-2.32-12.542-6.96-17.401c-4.635-4.859-10.895-7.289-18.779-7.289c-5.339,0-9.737,0.746-13.197,2.232
			c-3.456,1.483-6.191,3.459-8.207,5.91c-2.017,2.451-3.919,5.604-5.716,9.456c-1.798,3.857-3.434,7.485-4.924,10.9
			c-0.875,1.838-2.456,3.283-4.732,4.334c-2.273,1.045-4.903,1.575-7.877,1.575c-3.502,0-6.719-1.422-9.654-4.279
			c-2.937-2.846-4.401-6.633-4.401-11.349c0-4.559,1.38-9.345,4.137-14.381c2.757-5.034,6.786-9.826,12.079-14.377
			c5.297-4.55,11.885-8.21,19.765-10.966c7.878-2.757,16.683-4.137,26.397-4.137c8.497,0,16.236,1.16,23.24,3.48
			c7.004,2.32,13.088,5.671,18.256,10.046c5.169,4.377,9.06,9.458,11.687,15.237c2.634,5.772,3.941,11.994,3.941,18.648
			c0,8.75-1.905,16.257-5.715,22.522c-3.809,6.271-9.259,12.366-16.351,18.331c6.83,3.672,12.587,7.874,17.271,12.607
			c4.684,4.728,8.208,9.955,10.571,15.693c2.366,5.74,3.548,11.902,3.548,18.566c0,7.968-1.6,15.673-4.795,23.114
			c-3.185,7.443-7.9,14.074-14.118,19.896c-6.221,5.822-13.593,10.375-22.128,13.657c-8.536,3.283-17.971,4.926-28.305,4.926
			c-10.505,0-19.92-1.883-28.234-5.648c-8.315-3.764-15.168-8.47-20.554-14.116C172.084,376.725,168.01,370.882,165.251,364.831z
			 M426.184,66.219v100.097c0,0.298-0.107,0.566-0.141,0.854v260.102c0,16.223-13.209,29.449-29.452,29.449H59.99
			c-16.238,0-29.453-13.204-29.453-29.449V118.724c0-0.46,0.112-0.887,0.131-1.335V66.225c0-6.235,8.049-11.302,17.981-11.302
			h32.103V33.845C80.751,15.174,95.931,0,114.586,0c18.66,0,33.84,15.174,33.84,33.845v21.078h53.001V33.845
			C201.428,15.174,216.607,0,235.267,0c18.658,0,33.838,15.174,33.838,33.845v21.078h48.298V33.845
			C317.402,15.174,332.591,0,351.239,0c18.659,0,33.852,15.174,33.852,33.845v21.078h23.112
			C418.129,54.922,426.184,59.984,426.184,66.219z M334.238,54.922h34.01V33.845c0-9.382-7.624-17.013-17.004-17.013
			c-9.384,0-17.006,7.631-17.006,17.013V54.922z M218.262,54.922h34.015V33.845c0-9.382-7.621-17.013-17.015-17.013
			c-9.376,0-17,7.631-17,17.013V54.922z M97.577,54.922h34.017V33.845c0-9.382-7.624-17.013-17.007-17.013
			c-9.378,0-17.01,7.631-17.01,17.013V54.922z M400.788,177.629H55.781v249.646c0,2.322,1.888,4.203,4.208,4.203h336.596
			c2.32,0,4.202-1.881,4.202-4.203V177.629z"/>
	</g>
</g>
<g>
</g>
<g>
</g>
<g>
</g>
<g>
</g>
<g>
</g>
<g>
</g>
<g>
</g>
<g>
</g>
<g>
</g>
<g>
</g>
<g>
</g>
<g>
</g>
<g>
</g>
<g>
</g>
<g>
</g>
</svg>
