<?xml version="1.0" encoding="iso-8859-1"?>
<!-- Generator: Adobe Illustrator 17.1.0, SVG Export Plug-In . SVG Version: 6.00 Build 0)  -->
<!DOCTYPE svg PUBLIC "-//W3C//DTD SVG 1.1//EN" "http://www.w3.org/Graphics/SVG/1.1/DTD/svg11.dtd">
<svg version="1.1" id="Capa_1" xmlns="http://www.w3.org/2000/svg" xmlns:xlink="http://www.w3.org/1999/xlink" x="0px" y="0px"
	 viewBox="0 0 463.191 463.191" style="enable-background:new 0 0 463.191 463.191;" xml:space="preserve">
<g>
	<path d="M387.416,54.273c14.959,0,27.13-12.174,27.13-27.138C414.546,12.173,402.375,0,387.416,0
		c-14.962,0-27.134,12.173-27.134,27.136C360.282,42.1,372.454,54.273,387.416,54.273z"/>
	<path d="M337.595,128.432c1.397,0.729,2.894,1.154,4.445,1.267c0.276,0.021,0.552,0.031,0.827,0.031
		c4.27,0,8.149-2.353,10.126-6.139l7.408-14.201v20.865c0,3.104,2.524,5.628,5.628,5.628h44.354c3.103,0,5.628-2.524,5.628-5.628
		v-22.178l8.094,15.514c1.974,3.785,5.854,6.139,10.127,6.139c0.275,0,0.55-0.011,0.825-0.031c1.552-0.112,3.047-0.538,4.445-1.267
		c2.703-1.409,4.695-3.786,5.609-6.696c0.914-2.908,0.642-5.999-0.769-8.701L418.708,63.89c-1.974-3.784-4.932-6.135-10.127-6.135
		c-0.222,0-40.335,0-40.335,0c-4.865,0-8.026,2.629-9.854,6.135l-25.636,49.145c-1.41,2.702-1.684,5.792-0.77,8.701
		C332.9,124.644,334.892,127.021,337.595,128.432z"/>
	<path d="M387.416,163.654c-14.962,0-27.134,12.173-27.134,27.136c0,14.964,12.172,27.138,27.134,27.138
		c14.959,0,27.13-12.174,27.13-27.138C414.546,175.827,402.375,163.654,387.416,163.654z"/>
	<path d="M418.708,227.544c-1.974-3.784-5.854-6.135-10.127-6.135c-0.222,0-40.335,0-40.335,0c-4.803,0-8.026,2.629-9.854,6.135
		l-25.636,49.144c-1.41,2.702-1.684,5.792-0.77,8.701c0.914,2.908,2.905,5.286,5.608,6.696c1.397,0.728,2.894,1.154,4.445,1.267
		c0.276,0.02,0.552,0.03,0.827,0.03c4.27,0,8.149-2.352,10.126-6.138l7.408-14.201v20.865c0,3.104,2.524,5.628,5.628,5.628h44.354
		c3.103,0,5.628-2.524,5.628-5.628v-22.178l8.094,15.514c1.974,3.785,5.854,6.138,10.127,6.138c0.275,0,0.55-0.01,0.825-0.03
		c1.552-0.112,3.047-0.538,4.445-1.267c2.703-1.409,4.695-3.787,5.609-6.696c0.914-2.908,0.642-5.999-0.769-8.701L418.708,227.544z"
		/>
	<path d="M414.546,354.444c0-14.963-12.171-27.136-27.13-27.136c-14.962,0-27.134,12.173-27.134,27.136
		c0,14.964,12.172,27.138,27.134,27.138C402.375,381.582,414.546,369.408,414.546,354.444z"/>
	<path d="M418.708,391.198c-1.974-3.784-5.854-6.135-10.127-6.135c-0.222,0-40.335,0-40.335,0c-4.927,0-8.026,2.629-9.854,6.135
		l-25.636,49.145c-1.41,2.702-1.684,5.792-0.77,8.701c0.914,2.908,2.905,5.286,5.608,6.696c1.397,0.728,2.894,1.155,4.445,1.267
		c0.276,0.021,0.552,0.03,0.827,0.03c4.27,0,8.149-2.351,10.126-6.138l7.408-14.201v20.865c0,3.104,2.524,5.628,5.628,5.628h44.354
		c3.103,0,5.628-2.524,5.628-5.628v-22.178l8.094,15.514c1.974,3.785,5.854,6.138,10.127,6.138c0.275,0,0.55-0.01,0.825-0.03
		c1.552-0.111,3.047-0.538,4.445-1.267c2.703-1.409,4.695-3.787,5.609-6.696c0.914-2.908,0.642-5.999-0.769-8.701L418.708,391.198z"
		/>
	<path d="M317.805,75.132c4.971,0,9-4.029,9-9s-4.029-9-9-9h-55.738c-7.168,0-13,5.832-13,13V236.39h-16.523c-4.971,0-9,4.029-9,9
		s4.029,9,9,9h16.523v166.256c0,7.168,5.832,13,13,13h55.738c4.971,0,9-4.029,9-9s-4.029-9-9-9h-50.738V254.39h50.738
		c4.971,0,9-4.029,9-9s-4.029-9-9-9h-50.738V75.132H317.805z"/>
	<path d="M112.25,147.909c-52.219,0-94.701,42.481-94.701,94.699c0,52.219,42.482,94.701,94.701,94.701
		c52.218,0,94.699-42.482,94.699-94.701C206.949,190.391,164.468,147.909,112.25,147.909z M112.25,319.31
		c-42.293,0-76.701-34.408-76.701-76.701c0-42.292,34.408-76.699,76.701-76.699c42.292,0,76.699,34.407,76.699,76.699
		C188.949,284.901,154.542,319.31,112.25,319.31z"/>
	<path d="M164.754,200.691c-5.2-4.108-12.747-3.221-16.854,1.979l-44.043,55.768L74.43,236.137
		c-5.28-4.003-12.807-2.967-16.812,2.315c-4.003,5.281-2.967,12.809,2.315,16.811l36.406,27.593
		c2.694,2.044,5.888,3.033,9.063,3.033c4.471,0,8.905-1.962,11.855-5.698l49.475-62.646
		C170.841,212.345,169.955,204.799,164.754,200.691z"/>
</g>
<g>
</g>
<g>
</g>
<g>
</g>
<g>
</g>
<g>
</g>
<g>
</g>
<g>
</g>
<g>
</g>
<g>
</g>
<g>
</g>
<g>
</g>
<g>
</g>
<g>
</g>
<g>
</g>
<g>
</g>
</svg>
