<?xml version="1.0" encoding="utf-8"?>

<!-- License Agreement at http://iconmonstr.com/license/ -->

<!DOCTYPE svg PUBLIC "-//W3C//DTD SVG 1.1//EN" "http://www.w3.org/Graphics/SVG/1.1/DTD/svg11.dtd">
<svg version="1.1" xmlns="http://www.w3.org/2000/svg" xmlns:xlink="http://www.w3.org/1999/xlink" x="0px" y="0px"
	 width="512px" height="512px" viewBox="0 0 512 512" style="enable-background:new 0 0 512 512;" xml:space="preserve">
<path id="easter-24" d="M337.189,410.5c-12.875-30.176-42.464-45.951-73.042-49.589c-16.412-35.004-19.563-93.679,8.817-151.39
	c7.997,3.747,16.647,5.834,25.818,5.834c51.885,0,116.562-58.499,128.883-165.355c-180.3,0-203.602,87.418-182.412,132.38
	c8.869-11.945,17.988-22.406,28.182-31.794c-0.303-42.808,68.079-59.89,112.136-64.274c-19.849,68.197-67.409,101.986-95.237,93.21
	c13.143-19.899,28.885-36.538,39.697-47.979c-55.256,26.286-92.287,86.864-104.022,149.772c-6.337-3.881-14.434-8.206-23.504-12.213
	c13.597-32.07-40.418-65.741-100.267-35.691c18.574,49.949,73.059,70.637,95.054,44.342c10.326,7.494,19.463,15.6,25.984,22.48
	c-2.615,25.373-0.654,47.234,3.085,62.422c-19.782,4.393-36.915,14.166-46.169,28.902C133.336,372.244,84.334,409.428,84.334,462
	h309C393.334,425.521,364.013,408.723,337.189,410.5z M126.681,242.161c38.726-11.148,65.297,8.759,59.697,20.98
	c-9.237-4.19-19.161-7.142-32.305-8.751c11.266,4.561,23.336,10.193,28.6,13.797C168.792,280.031,136.906,262.975,126.681,242.161z"
	/>
</svg>
